<svg xmlns="http://www.w3.org/2000/svg" xmlns:svg="http://www.w3.org/2000/svg" viewBox="0 0 1080 919.15"><defs><style>.cls-1{fill:#3b00aa;}.cls-2{fill:#fea502;}.cls-3{fill:#f9a70e;}.cls-4{fill:#3c04a5;}.cls-5{fill:#3c05a7;}.cls-6{fill:#3c04a6;}.cls-7{fill:#410aa6;}.cls-8{fill:#3a0b94;}.cls-9{fill:#3a0b87;}.cls-10{fill:#390a87;}.cls-11{fill:#370896;}.cls-12{fill:#520b83;}.cls-13{fill:#380b93;}.cls-14{fill:#4610a3;}.cls-15{fill:#370c80;}.cls-16{fill:#360d7e;}.cls-17{fill:#530b85;}.cls-18{fill:#4213a2;}.cls-19{fill:#4011a2;}.cls-20{fill:#f1be56;}.cls-21{fill:#f0c559;}.cls-22{fill:#ad91af;}.cls-23{fill:#fea308;}.cls-24{fill:none;}.cls-25{fill:#3b04a6;}.cls-26{fill:#3c04a7;}.cls-27{fill:#3d05a7;}.cls-28{fill:#3c03a8;}.cls-29{fill:#3c05a6;}.cls-30{fill:#3c03a7;}.cls-31{fill:#3d04a5;}.cls-32{fill:#3d05a5;}.cls-33{fill:#3d03a5;}.cls-34{fill:#3d06a5;}.cls-35{fill:#3e08a5;}.cls-36{fill:#390e90;}.cls-37{fill:#3d08a4;}.cls-38{fill:#3b148c;}.cls-39{fill:#350c7e;}.cls-40{fill:#380790;}.cls-41{fill:#380890;}.cls-42{fill:#370894;}.cls-43{fill:#3a0f8f;}.cls-44{fill:#360b81;}.cls-45{fill:#360c7e;}.cls-46{fill:#340991;}.cls-47{fill:#39138b;}.cls-48{fill:#350d80;}.cls-49{fill:#370c83;}.cls-50{fill:#3b059b;}.cls-51{fill:#fcfcfc;}.cls-52{fill:#370c81;}</style></defs><path class="cls-1" d="M621.21,410.91c-1.52,5.48-3.78,10.7-5.77,16q-22.55,60.38-45.19,120.7a9.36,9.36,0,0,1-1.53,3.37,12.57,12.57,0,0,0-1.64,4.3l0-.08c-1.11.53-.32,1.79-1,2.51l0-.06c-.94.61-.2,1.82-.9,2.51v0c-.59.54-.5,1.34-.75,2a9.93,9.93,0,0,1-1.4,4.32c-2.06,3.74-1.41,7.13.14,11,11.32,28.13,22.42,56.35,33.6,84.54a10.39,10.39,0,0,0,1.57,3.35c1,.55.22,1.82,1,2.47h0c.52.48.44,1.2.73,1.78l0-.06c1,.54.2,1.81,1,2.46h0c.52.49.46,1.21.71,1.8l0-.06a7.32,7.32,0,0,1,1.39,3.28,17.67,17.67,0,0,1,1.41-3.33l0,0a30.35,30.35,0,0,1,3.38-9.22c3.17-7,5.45-14.24,8.05-21.39q40-109.79,79.94-219.61c1.68-4.63,1.37-4,5.47-4q30.86,0,61.72,0h3.72c.92,1.85-.29,3.13-.82,4.43Q747.52,469.46,729,515q-46.73,114.81-93.46,229.6c-1,2.51-1.49,5.31-3.49,7.37-4-.74-8-.28-12-.3-12.46-.08-24.92,0-37.38,0a19.57,19.57,0,0,1-4.95-.35,152.44,152.44,0,0,1-7.51-18.18c-.56-1.45-.65-3.1-1.78-4.32l.05.07c-.51-1.46-.5-3.13-1.83-4.24-4.56-10.87-9.18-21.73-13.69-32.63q-15.2-36.76-30.33-73.57c-.62-1.52-1.3-3-2-4.54-1.49.64-1.55,2-2,3.13q-26.82,64.89-53.58,129.8c-.63,1.53-1.4,3-2.1,4.5-4.11.73-8.25.28-12.38.3-12.71.08-25.41,0-38.12.06-2.05,0-3.85-.17-5.05-2-3.1-6.06-5.32-12.49-7.87-18.78Q337.46,577.31,275.47,423.76c-.46-1.15-.9-2.31-1.34-3.44,1-1.39,2.36-.81,3.5-.81q30.86-.06,61.71,0c3.89,0,3.91,0,5.26,3.73l63,172.13q14.24,38.92,28.49,77.84c.46,1.26.6,2.73,1.85,3.75a8,8,0,0,0,1.59-3.19q18.9-48.74,37.85-97.46a11.35,11.35,0,0,0,.13-8.75q-30.21-82.1-60.25-164.24c-.19-.52-.32-1.06-.48-1.59.25-.46.57-.52,1-.16,15.42,11.27,32.56,17.72,51.72,18.53,3.47.14,6.94.5,10.4.39,2.38-.08,3.37.76,4.11,3,5.05,15.14,10.25,30.22,15.39,45.33q9.65,28.37,19.32,56.73c.42,1.24.4,2.77,2,3.76,2.91-8.5,5.79-16.84,8.63-25.19,9.07-26.67,18.19-53.32,27.13-80,1-2.84,2.36-3.8,5.23-4.14C580.2,417.7,598.37,414,615,405a2.92,2.92,0,0,1,.8-.18,12.27,12.27,0,0,0,4.41-2.52l0,0a7.76,7.76,0,0,0,2.56-1.63l0,0c2.28.65,1.16,2.2.93,3.51l0,0c-.91.6-.17,1.81-.91,2.47h0c-.52.49-.45,1.21-.7,1.81l0-.08C621.07,408.91,621.89,410.19,621.21,410.91Z"/><path class="cls-2" d="M435.93,379.07c-15.38-10.33-27.44-23.74-36.84-39.62a12.18,12.18,0,0,1-.77-1.9A177.44,177.44,0,0,1,385.54,307,227.17,227.17,0,0,1,378,271.37c-3.51-26.83-1.84-53.8-2-80.72-.25-38.65-.07-77.3-.06-115.95,0-5.56,0-5.86,5.56-6.14,12.77-.66,25.56-.32,38.34-.18,5.37.06,10.74.12,16.11,0,2.19,0,3,.77,3,2.89-.11,55.6-.43,111.21.13,166.81.23,22.77,2.61,45.59,13.23,66.4,11.36,22.28,28.49,37.19,54.11,40.83,11.68,1.66,23.28,1.69,34.71-1.13a70.37,70.37,0,0,0,32.38-17.78c14.79-14.2,21.92-32,25.69-51.77,2.83-14.78,3.3-29.63,3.27-44.59q-.1-78,0-156c0-5.48,0-5.63,5.36-5.65,11.51,0,23-.47,34.54.17,6.49.37,13-.68,19.54-.09,2.93.26,4,1.14,4,4.26-.09,58,.16,116-.2,173.93-.11,18.74-3.26,37.23-8.24,55.37a166.85,166.85,0,0,1-18,41.33,18.41,18.41,0,0,1-1.51,3.21,115.17,115.17,0,0,1-24.32,26.9,8.41,8.41,0,0,0-2.44,2.2,52.64,52.64,0,0,1-13.56,9.11c-6.51,3.07-12.79,6.65-19.59,9.12a156.51,156.51,0,0,1-41.44,8.65,205.07,205.07,0,0,1-41.15-1c-20.56-2.56-39.71-9.06-56.93-20.83C437.68,380.09,436.74,379.68,435.93,379.07Z"/><path class="cls-3" d="M638.66,344c.61-3.83,3.55-6.43,5.18-9.72,1.82-3.7,4-7.19,4.91-11.32.24-1.16,1.29-2.05,1.8-3.2a2.67,2.67,0,0,0,.28-2.3c-.43-1.08-1-2.19,1.08-2.09.81,0,.83-.95,1.11-1.56,2.27-4.94,3.42-10.23,4.72-15.45.5-2,.85-4.05,1.39-6.05,2.36-8.83,3.23-17.91,4.61-26.91.69-4.54,1.33-9,.26-13.59,2-3.88,1.34-8.09,1.34-12.18q0-82.17,0-164.33c0-1-.06-2,0-2.92.11-1.81-.47-2.66-2.49-3a43,43,0,0,0-14.76-.14,18.53,18.53,0,0,1-6.64.09c-7.46-1.28-14.93-.64-22.4-.39a9.86,9.86,0,0,1-2.43,0c-3.85-.75-7.7-.08-11.55.05-1.61.06-2.27.74-2.28,2.25,0,1.11,0,2.22,0,3.34q0,85.5,0,171c0,2.9.14,5.79-.66,8.68a8.85,8.85,0,0,0,.22,5.35,2.78,2.78,0,0,1,.19,2c-2.4,6.22-2.54,12.9-3.95,19.33A119.74,119.74,0,0,1,593,298.68c-1.17,3-2.51,6.07-3.86,8.9a34.92,34.92,0,0,1-6.73,9.74c-1.09,1.08-1.92,2.23-1.47,4s-.58.74-1.26.51c-1-.33-1.55.47-2,1.08-4.72,5.76-10.78,9.87-16.67,14.3-3.39,2.55-7.28,3.17-10.83,4.87a44.32,44.32,0,0,1-16.38,4.09c-6,.35-11.92,1.56-18.16.66-5.63-.81-11.39-1.72-17.19-1.61-1.24,0-2.45-1.11-3.73-1.64-7.4-3.07-14.92-5.95-21.17-11.25a143.86,143.86,0,0,1-11.27-11.09c-.82-.87-1.08-2.36-2.76-2-.53.11-.82-.19-.68-.69.83-3.14-2.16-4.54-3.27-6.75-1.52-3-3.34-5.9-4.82-9a109.53,109.53,0,0,1-8.62-27.23c-.94-5.12-1.51-10.37-2.08-15.59-.53-4.77-.22-9.71-1.92-14.33-.65-1.77-.43-3.58-.43-5.37q0-81.12,0-162.24c0-1.66.31-3.34-.33-5a2.11,2.11,0,0,1-.23-.78c.14-2-.58-2.92-2.74-2.92-4,0-8-.89-12.14-.08-2.2.43-4.57-.7-7-.67-9.17.12-18.35.16-27.52,0-3.1-.06-6,.76-9.07.91-1.45.07-1.88.93-1.88,2.21,0,.83,0,1.66,0,2.5q0,89.67,0,179.34c0,4.84,1,9.61,1.4,14.41A129.27,129.27,0,0,0,381,286c1.13,4.78,1.95,9.63,3.34,14.37,1.08,3.69,2.35,7.34,3.2,11.09a14.93,14.93,0,0,0,1.37,3.47c.31.62.5,1.1,1.48.52,1.21-.71,1.63.63,1.05,1.14-2.11,1.86-.72,3.42,0,5.18A108.37,108.37,0,0,0,398,335.11a3.93,3.93,0,0,1,.28,2.44c-4.05-5.55-6.51-11.91-9.09-18.19-5.35-13.06-8.46-26.74-10.74-40.61a276,276,0,0,1-3.34-44.85q0-79.68,0-159.35c0-6.72,0-6.72,6.53-6.72h53.8l2.5,0a1.77,1.77,0,0,1,2,2c0,1,0,2,0,2.92V236.77c0,16.6,1.54,33,5.89,49.11,4.06,15,11,28.48,22.1,39.58,12.67,12.66,28.07,19.18,45.85,20.16,10.89.6,21.67-.06,32.16-3.37a9.66,9.66,0,0,0,3.45-1.38c1.21-1,2.83-1.1,4.19-1.78l0,0c.41-.61,1.2-.47,1.71-.87l0,0c.85-1,2.24-1.1,3.31-1.75h0a16.85,16.85,0,0,1,2.6-1.58l0,0a8.24,8.24,0,0,1,2.6-1.72c9.32-5.95,16.36-14.07,22.06-23.43,7.34-12.07,11.26-25.32,13.5-39.15a194,194,0,0,0,2.66-31.1q0-83,0-165.94c0-.56,0-1.11,0-1.67,0-4.08,0-4.11,4.14-4.12q28.13,0,56.27,0c3.92,0,4,0,4,3.86,0,57.12.14,114.24-.12,171.36-.11,26-4.34,51.47-13.71,75.88a121.18,121.18,0,0,1-13,25.12Q639.07,344.71,638.66,344Z"/><path class="cls-4" d="M211.86,825.38l12.31,15,.78-.14v-11c0-1.25,0-2.5,0-3.75.09-2.5.4-2.69,3-2.61,1.35,0,2,.44,2,1.9,0,8.07,0,16.13,0,24.19,0,1.64-1.73,2.35-3.7,1.72a3.28,3.28,0,0,1-1.58-1.28c-3.28-4.29-6.9-8.33-9.85-12.87-1.13-1.4-1.62-4.27-3.7-3.61-1.78.57-.72,3.22-.8,4.93-.14,2.91,0,5.83-.06,8.74,0,1.52.66,3.58-2.16,3.49s-1.92-2.25-1.93-3.68c0-6.24-.28-12.48.24-18.71.12-1.39-.69-3.2,1.17-4.08C209.58,822.67,210.48,824.66,211.86,825.38Z"/><path class="cls-5" d="M174.73,841.32c.93,2.2,1.9,4.33,4.57,5,4.8,1.17,8.27-1.2,8.79-6.15a41.12,41.12,0,0,0,.11-4.16c0-3.61,0-7.22,0-10.83,0-.79-.21-1.81.81-2.1a5.56,5.56,0,0,1,3.67.09c.68.28.56,1.19.56,1.87,0,5.28.17,10.56-.14,15.82-.36,6.15-4.35,9.91-10.42,10.41-6.54.53-10.7-2.23-12.53-8.32.31-5.18-.07-10.37.12-15.56,0-1.3-.55-2.75.62-3.89,2.74-.55,3.61.51,3.57,3.32C174.41,831.64,174,836.5,174.73,841.32Z"/><path class="cls-6" d="M257.68,826.24c-.07-3.27-.07-3.31,2.79-3.33,5.67,0,11.34,0,17,0,3.59,0,3.66.18,2.46,4.08-2.75-.18-5.54-.93-8.22.4,0,6.93-.12,13.87,0,20.81,0,2-.62,2.64-2.61,2.65s-2.65-.63-2.61-2.63c.12-5.55,0-11.1,0-16.65,0-1.39,0-2.78,0-4.17C263.72,825.56,260.46,827.7,257.68,826.24Z"/><path class="cls-7" d="M248,824.6l.18,24.55c0,.58-.1,1.08-.72,1.31-3.14,0-3.92-1.6-3.82-4.6.25-7.13,0-14.27.1-21.4C245.17,822.68,246.58,822.91,248,824.6Z"/><path class="cls-8" d="M211.86,825.38c-1.69.58-2.68-2.75-4.35-1-1,1.06-.17,2.88-.43,4.29-1.09,5.8-.28,11.63-.55,17.43,0,.42,0,.83,0,1.25,0,1.21.26,2.28,1.82,2.18,1.3-.09,1.48-1.06,1.49-2.09,0-4,0-8.06.05-12.09,0-1.29-.76-3.13.9-3.73,2-.72,2.23,1.6,3.22,2.59a2.85,2.85,0,0,1,.79,2.29c-1.09-1-2.17-2-3.82-3.58v8.5c0,2.21-.08,4.43,0,6.63.09,1.83-.31,2.84-2.46,2.77-1.89-.05-2.79-.56-2.7-2.61.13-2.76,0-5.52,0-8.29,0-4.56,0-9.12,0-13.68,0-1.13-.69-2.79,1-3.21s3.34-.56,4.42,1.23C211.51,824.63,211.68,825,211.86,825.38Z"/><path class="cls-9" d="M407.4,749.6a10.16,10.16,0,0,0,6.22,1.66c16.44,0,32.89,0,49.33,0-.45,1.21-1.51,1-2.45,1-16.62,0-33.24,0-49.86,0C408.6,752.37,407.48,751.7,407.4,749.6Z"/><path class="cls-10" d="M577.69,751.27l39.2,0c3.87,0,7.73,0,11.6,0,1.2,0,2.52-.35,3.51.72-1.31.68-2.72.36-4.08.36q-23.1,0-46.18,0C580.38,752.28,578.64,753.18,577.69,751.27Z"/><path class="cls-11" d="M244.09,823.83q0,10.6,0,21.2c0,3.91,0,3.91,3.34,5.43-.67.11-1.34.24-2,.32-1.67.19-2.5-.38-2.46-2.26.2-8.23-.23-16.47.24-24.69A.56.56,0,0,1,244.09,823.83Z"/><path class="cls-12" d="M174.73,841.32c-1.21-1.28-.68-2.88-.71-4.35-.07-3.31,0-6.62,0-9.93,0-2.86-.08-2.86-3.31-3.2-.31.38-.61.37-.91,0,3.74-1.91,4.93-1.33,4.95,2.48C174.75,831.31,174.73,836.32,174.73,841.32Z"/><path class="cls-13" d="M169.77,823.83h.91c.14,5.62-.43,11.24.33,16.85a3,3,0,0,1-.85,2.25C169.07,836.59,169.56,830.21,169.77,823.83Z"/><path class="cls-14" d="M623.72,404.17c-.22-1.2.29-2.58-.93-3.51.56-1.05,1.67-1.34,3-2.32A12.67,12.67,0,0,1,623.72,404.17Z"/><path class="cls-15" d="M257.68,826.24l6.43.08c.94,0,1.92-.05,2.34,1.09-2.33,0-4.65-.06-7-.13C258.74,827.26,257.76,827.49,257.68,826.24Z"/><path class="cls-16" d="M271.72,827.39c2.66-1.9,5.43-1.24,8.22-.4C277.23,827.66,274.45,827.06,271.72,827.39Z"/><path class="cls-14" d="M620.24,402.3c-.82,2-2.49,2.46-4.4,2.52A11.08,11.08,0,0,1,620.24,402.3Z"/><path class="cls-17" d="M244.09,823.83h-.91c2.52-1.59,4.06-1.34,4.77.77C246.8,823.66,245.43,823.78,244.09,823.83Z"/><path class="cls-18" d="M567.08,555.29a4,4,0,0,1,1.64-4.3A7.91,7.91,0,0,1,567.08,555.29Z"/><path class="cls-19" d="M568.4,728.77c1.67,1,2,2.55,1.78,4.32A8.45,8.45,0,0,1,568.4,728.77Z"/><path class="cls-19" d="M566.62,724.6c1.76.92,2.12,2.44,1.83,4.24A8.64,8.64,0,0,1,566.62,724.6Z"/><path class="cls-20" d="M638.66,344l.9.06a3,3,0,0,1-1.67,2.55C637.7,345.6,638.38,344.85,638.66,344Z"/><path class="cls-14" d="M622.77,400.69a2.14,2.14,0,0,1-2.56,1.63A3.87,3.87,0,0,1,622.77,400.69Z"/><path class="cls-21" d="M435.93,379.07a2.42,2.42,0,0,1,2.53,1.66A2.59,2.59,0,0,1,435.93,379.07Z"/><path class="cls-18" d="M566.17,557.72c-.08-1-.29-2,1-2.51A3,3,0,0,1,566.17,557.72Z"/><path class="cls-18" d="M565.29,560.17c0-1-.21-2,.9-2.5A2.87,2.87,0,0,1,565.29,560.17Z"/><path class="cls-14" d="M621.21,410.91c-.05-1-.27-2.05,1-2.57A3.24,3.24,0,0,1,621.21,410.91Z"/><path class="cls-14" d="M622.83,406.6c0-.94-.18-1.93.91-2.47A2.93,2.93,0,0,1,622.83,406.6Z"/><path class="cls-14" d="M622.13,408.42a1.46,1.46,0,0,1,.7-1.81A1.77,1.77,0,0,1,622.13,408.42Z"/><path class="cls-18" d="M564.54,562.15a1.7,1.7,0,0,1,.75-2A2.12,2.12,0,0,1,564.54,562.15Z"/><path class="cls-22" d="M417.71,401.54l-1,.16c-.34-.22-.63-.56-.15-.8S417.53,401,417.71,401.54Z"/><path class="cls-23" d="M607.72,71.81c-1,2.07-.74,4.15-.74,6.2q0,81.13,0,162.28c0,1.57.43,3.25-.49,4.73-1.38-.27-1.07-1.23-1.14-2s0-1.39,0-2.08q0-82.61,0-165.2C605.31,74.08,604.76,72.06,607.72,71.81Z"/><path class="cls-23" d="M603.9,71.7c.19-.2.41-.65.69-.7.82-.12.67.61.67,1,0,.21.48.87-.34.73C604.38,72.69,603.91,72.48,603.9,71.7Z"/><path class="cls-3" d="M563.59,337.35a4.69,4.69,0,0,1,.68-1c.37-.33.86-.84,1.25-.07.06.12-.44.63-.76.8a3.76,3.76,0,0,1-1.17.25Z"/><path class="cls-3" d="M563.59,337.34c-.06.12-.15.34-.19.33-.27-.06-.21-.19.19-.32Z"/><path class="cls-24" d="M750,844.63s0,.08,0,.13h0A.62.62,0,0,1,750,844.63Z"/><path class="cls-25" d="M409.05,826.69c-.69,2.11-1.41,4.21-2.11,6.31-1.07,3.21-1.82,6.54-3.6,10.21-.67-1.87-1.15-3.11-1.56-4.38-1.45-4.48-2.9-9-4.28-13.48-.49-1.61-1.16-2.56-3.14-2.53a3,3,0,0,0-3.28,2.38c-1.58,5-3.25,10-4.93,15-.28.83-.09,2-1.58,2.23-1.79-5.66-3.66-11.32-5.35-17-.57-1.92-1.52-2.83-3.53-2.51-.77.12-1.67-.29-2.43.85,2.59,7.38,4.52,15.17,7.54,22.61a5.84,5.84,0,0,0,6.78,3.31h0c2.66-5.75,3.79-12.08,6.59-18.4,2.49,5.56,3.37,11,5.72,16,1,.31,1.18,1.5,2,2,1.8,1,3.3.46,4.21-1.49.75-1.59.68-3.58,2.34-4.71h0c2.67-6.4,4.32-13.12,6.62-19.67C409.3,822.37,410.22,823.08,409.05,826.69Z"/><path class="cls-4" d="M492.55,824.84c0-1.42-.58-1.88-2-2A3.43,3.43,0,0,0,487,825c-2.4,4.38-4.9,8.7-7.4,13-.51.88-.82,2-2.14,2.61-2.8-4.83-5.5-9.5-8.21-14.16a19.29,19.29,0,0,0-1.75-2.82c-1.06-1.26-2.55-.77-3.88-.58-.9.13-.82,1-.82,1.67,0,8,0,16.11,0,24.16,0,2.22,1.55,1.81,2.9,1.9,1.63.1,2.16-.63,2.13-2.22-.09-3.89-.07-7.78,0-11.66,0-.81-.6-1.91.8-2.52.39.59.79,1.14,1.13,1.73,2,3.34,3.87,6.74,5.95,10,1.33,2.11,2.69,2.05,4.09,0,.92-1.38,1.69-2.86,2.52-4.3q2.24-3.84,4.46-7.68l.92.28v4c0,3.34.07,6.67,0,10-.05,1.79.58,2.47,2.39,2.43,1.6,0,2.61-.25,2.59-2.24C492.52,840.67,492.53,832.75,492.55,824.84Z"/><path class="cls-6" d="M561.16,825.26c0-2.27-1.13-2.34-2.84-2.4-1.89-.07-2.37.75-2.32,2.47.09,3.06,0,6.12,0,9.17v5.91c-1.9-.73-2.47-2-3.3-3.08-3.13-3.89-6.21-7.84-9.31-11.76-.43-.55-.88-1.07-1.3-1.63-1.14-1.53-2.77-1.2-4.19-.86s-.87,1.85-.88,2.85Q537,837,537,848c0,2.62.33,2.7,2.83,2.82s2.25-1.39,2.25-3c0-2.92,0-5.84,0-8.76v-5.65c1.65.11,2,1.17,2.53,1.87,3.3,4.12,6.55,8.28,9.82,12.42.51.66,1,1.31,1.55,2,1.15,1.46,2.75,1.27,4.21.89s.87-1.85.88-2.84C561.14,840.27,561,832.76,561.16,825.26Z"/><path class="cls-26" d="M792.07,822.45c-8.43.09-14.56,6.22-14.51,14.5s6.29,14.38,14.67,14.34,14.49-6.15,14.45-14.5A14,14,0,0,0,792.07,822.45Zm-.12,24c-5.41-.08-9.19-4.1-9.14-9.73s3.94-9.59,9.32-9.6,9.3,4,9.36,9.58C801.54,842.54,797.6,846.58,792,846.5Z"/><path class="cls-26" d="M437.37,822.44a14.2,14.2,0,0,0-14.69,14.25c-.09,8.37,6.28,14.67,14.76,14.59s14.44-6.15,14.43-14.44S445.73,822.49,437.37,822.44Zm-.27,24.06c-5.38-.08-9.29-4.19-9.25-9.73a9.44,9.44,0,1,1,18.88,0A9.25,9.25,0,0,1,437.1,846.5Z"/><path class="cls-4" d="M840,829.76c-1.19-4-4.53-6.5-9.47-6.76-3.46-.19-6.94,0-10.41-.11-1.45,0-2.34.28-2.33,2,.05,7.91.08,15.82,0,23.73,0,2.07,1.13,2.13,2.65,2.17,1.7,0,2.63-.47,2.5-2.35-.09-1.38,0-2.78,0-4.16a1.36,1.36,0,0,1,1.15-1.45,6.75,6.75,0,0,1,7.8,2.84,14.83,14.83,0,0,1,1.15,1.73c1.49,3.1,3.82,4.17,7.29,3-1.27-3.1-3.77-5.44-5.19-8.47.33-.31.61-.59.91-.83C840,837.85,841.29,834.16,840,829.76Zm-4.85,4.18a4.76,4.76,0,0,1-3.29,3.9,9.2,9.2,0,0,1-2,.37c-6.85.85-6.94.77-6.91-6,0-1.65.14-3.29.21-4.94h0a6.53,6.53,0,0,1,7.37-.06,18.41,18.41,0,0,1,2.88,1.53A5,5,0,0,1,835.13,833.94Z"/><path class="cls-27" d="M758.89,823c-3.31-.26-6.66-.13-10-.11s-3.25.06-3.27,3.17c0,7.35,0,14.7,0,22,0,.78-.3,1.69.58,2.26.24-2.13,3.1.3,3.35-2,.13-1.21-.14-2.45.4-3.66,0,0,0-.09,0-.13a.62.62,0,0,0,0,.13,3.36,3.36,0,0,1,.52-.85v6.35h0c.86-1.27.36-2.69.42-4,.13-3.27.08-3.32,3.53-3.32a23.52,23.52,0,0,0,7-.7c3.4-1.05,5.82-3.09,6.65-6.74C769.61,828.83,765.83,823.57,758.89,823Zm4.26,10.39a4.85,4.85,0,0,1-3.63,4.52,1.89,1.89,0,0,1-.4.08c-2.59.19-5.56,1.19-7.63-.37-1.52-1.14-.45-3.89-.54-5.93a9.57,9.57,0,0,1,.42-4.5h0l-.18-.37c2.57-.72,5.12-1.26,7.54.46C761.51,828.37,763.52,830,763.15,833.4Z"/><path class="cls-28" d="M661.93,847.92a2.56,2.56,0,0,1-.73-2.26V827.83a2.56,2.56,0,0,1,.73-2.26c-.1-2.4-1.93-1.57-3.22-1.73h0q0,8.22,0,16.46c0,.28.06.74-.06.79-.83.39-.68-.39-.86-.79-1.5.43-1.87-.88-2.52-1.68-3.54-4.44-7.15-8.85-10.54-13.41-1.64-2.2-3.4-3-6.11-1.78,0,8.36,0,16.67,0,25,0,1.79.57,2.47,2.39,2.41,2.51-.09,2.68-.11,2.71-2.9,0-4.79,0-9.59,0-14.38A39.21,39.21,0,0,1,650,840.2c1.92,2.36,3.86,4.7,5.79,7,1.32.14,1.92,1.38,3,1.91C660.19,849.87,661.64,850.27,661.93,847.92Z"/><path class="cls-29" d="M721.81,822.83c-2.12-.07-2.87,1-3.59,2.67-3.19,7.53-6.49,15-9.75,22.52-.32.74-.82,1.46-.5,2.35,4.35.73,4.45.77,6-3.2.77-1.93,1.77-2.88,4-2.72a53.49,53.49,0,0,0,7.49,0c2.25-.15,3.49.53,4.34,2.77,1.47,3.88,1.64,3.82,6.66,3.14-3.76-8.62-7.42-16.84-10.92-25.12C724.77,823.41,723.72,822.89,721.81,822.83ZM717,840.1l4.67-11.4c2.25,3.71,3.38,7.35,5.1,11.4Z"/><path class="cls-30" d="M337.93,823.73c-4.17,0-8.33.12-12.49.06-2.07,0-3,.66-3,2.87.08,6.66,0,13.32.05,20,0,2.86.17,2.89,3.15,3,6.11.31,12.15.12,17.87-2.44,4.75-3.72,5.53-8.73,4.18-14.15C346.46,828,343.42,824.52,337.93,823.73Zm-3.39,22.56c-7.8.83-7.8.83-7.8-6.83,0-4,0-8,0-12h0c2.46-1.47,5.06-1.54,8.21-.22,4,1.27,7.23,3.32,8,8C343.86,840.93,340.33,845.68,334.54,846.29Z"/><path class="cls-31" d="M523.66,846.36c-2.91.06-5.83.06-8.74,0-4.38-.07-4.35,1-4.35-4.61a2.81,2.81,0,0,0,0-.41c-.24-2.1.84-2.6,2.74-2.53,2.91.11,5.83,0,8.74,0,1.67,0,1.54-1.22,1.57-2.34s-.15-2-1.5-2h-5.83c-6.29,0-6.43-.18-5.52-6.58a3.41,3.41,0,0,1,.34-.76c-.41-1.25.6-.88,1.11-.89,2.85,0,5.69,0,8.54,0,1.49,0,3,.12,4.3-.84h0c.26-1.29.51-2.57-1.48-2.57-5.42,0-10.83,0-16.25,0-1.41,0-2,.61-2,2,0,7.92,0,15.84,0,23.76,0,1.65.74,2.17,2.27,2.16,5.41,0,10.83,0,16.24,0,1.69,0,2.06-.83,2.08-2.33C526,846.79,525.19,846.33,523.66,846.36Z"/><path class="cls-29" d="M605.49,836.38a46.83,46.83,0,0,0-5.53-1.76,23.45,23.45,0,0,1-4.29-1.52c-2.4-1.35-2.34-3.8,0-5.29a5.76,5.76,0,0,1,2.77-.76,12.61,12.61,0,0,1,6.89,1.15c1.59.82,2.14.25,2.72-1.21s.63-2.36-.92-3c-4.41-1.78-8.88-2.24-13.36-.38a7.52,7.52,0,0,0-5,7.46c0,3.53,2.12,5.59,5.22,6.76,1.8.69,3.66,1.23,5.49,1.83a2.65,2.65,0,0,1,2.51.8h0a1.39,1.39,0,0,1,1.57.87h0l0,0c.87.23,1,.84.85,1.61h0l0,.84h0a1.57,1.57,0,0,1-1.45,1.88h0a.77.77,0,0,1-1,.51c-4.35,1.61-8.11-.34-12.11-2.18-.42,1.7-2.6,3-.4,4.76,3.92,3.12,12.95,3.32,17,.43A7.33,7.33,0,0,0,605.49,836.38Z"/><path class="cls-32" d="M869.22,846.39c-3,0-6.09,0-9.14,0-3.31,0-3.31-.06-3.33-3.51,0-.69,0-1.38,0-2.07,0-1.41.64-2,2-1.94,2.91,0,5.83-.08,8.73,0,1.86.06,2.35-.73,2.35-2.46,0-1.89-1.11-1.91-2.45-1.89-1.66,0-3.32,0-5,0-6.21,0-6.43-.28-5.46-6.61a3,3,0,0,1,.36-.74c-.38-1.27.64-.86,1.14-.87,3.26,0,6.53,0,9.79,0,.8,0,1.77.11,2.09-.85.47-1.38-.77-1.46-1.57-1.85a3.06,3.06,0,0,1-.62-.52h0c-4.57-.06-9.14,0-13.7-.22-2.15-.08-2.9.63-2.87,2.83.12,7.63,0,15.25,0,22.87,0,.67-.13,1.4.62,1.82a2.87,2.87,0,0,1,2.31-.7h14.56a2.79,2.79,0,0,1,2.29.72h0C872.53,846.63,872.45,846.44,869.22,846.39Z"/><path class="cls-33" d="M306,847.19c-2.72-.06-5.45,0-8.17,0-1.06,0-2.23.2-2.85-1h0c0-1.11.06-2.22.07-3.33,0-4-.4-3.95,3.75-3.94,2.36,0,4.72,0,7.08,0,1.5,0,2.32-.39,2.32-2.09s-.47-2.34-2.13-2.24c-1.24.07-2.5.05-3.74,0-2.21-.09-4.93.88-6.5-.38-1.87-1.51-.46-4.42-.78-6.7.63-1.54,2-1.11,3.16-1.13,3.8-.06,7.6-.05,11.41-.06h0c.08-3.29.08-3.33-2.77-3.35-4.83,0-9.67,0-14.51,0-1.71,0-2.48.46-2.45,2.33.13,8.14.15,16.29.22,24.44,4.78,0,9.56,0,14.34.05,1.31,0,2.78-.46,3.81.86h.83C308.78,847.28,308.78,847.24,306,847.19Z"/><path class="cls-34" d="M679.16,846.62c3.52,2.64,7,4.87,11.77,3.17,1.1-.39,2.48,0,3.72,0a2.3,2.3,0,0,1,1.22-1.55c1.86-.79,2.12-2.31,2-4.08s0-3.3,0-4.95c0-1.07-.22-1.88-1.65-1.66-1.1.17-1.76.44-1.69,1.74.09,1.65,0,3.3,0,5a2.22,2.22,0,0,1-1.74,2.48c-2.73.48-5.56,1.42-8.16-.51-3-.11-3.35-.36-4.18-3.25a3.89,3.89,0,0,1-2.61-4.18c.06-1.37,0-2.75,0-4.12a3.7,3.7,0,0,1,2.72-4.07h0c5.24-4.19,8.54-4.66,13.89-1.34,2.06,1.28,2.68-.11,3.67-1.09,1.46-1.46,0-2.18-.89-2.91-5.24-4.08-14.2-3.58-19.18,1s-5.92,12.28-2,18.45C677.59,844.55,678.21,845.91,679.16,846.62Zm7.92,1.61c.1,0,.19.15.28.23l-.33.18-.28-.24C686.86,848.34,687,848.23,687.08,848.23Z"/><polygon class="cls-34" points="694.65 849.77 694.65 849.77 694.65 849.77 694.65 849.77"/><path class="cls-35" d="M623,822.86c-1.59,0-2.65.22-2.59,2.23.11,3.88,0,7.77,0,11.65h0c0,4,0,8,0,12.07,0,2.14,1.42,2,2.82,2s2.35-.26,2.33-2c-.06-7.9-.07-15.81,0-23.71C625.6,823.05,624.58,822.86,623,822.86Z"/><path class="cls-36" d="M323.72,850.05c-1.59.05-1.63-1.16-1.63-2.32,0-7.35,0-14.71,0-22.07,0-1.56.52-2.33,2.16-2.26,4.56.21,9.14-.39,13.7.33-5-1.68-10.14-.55-15.21-.73-1.15,0-1.1,1-1.1,1.86,0,7.9,0,15.81,0,23.72,0,1.56.47,2.27,2.12,2.23,4.15-.12,8.32,0,12.47-.25a10.09,10.09,0,0,0,7.35-3.32C337.38,851.36,330.42,849.84,323.72,850.05Z"/><path class="cls-36" d="M325.66,849.68c-3-.15-3.13-.18-3.15-3-.06-6.66,0-13.32-.05-20,0-2.21.91-2.9,3-2.87,4.16.06,8.32,0,12.49-.06-4.56-.72-9.14-.12-13.7-.33-1.64-.07-2.17.7-2.16,2.26,0,7.36,0,14.72,0,22.07,0,1.16,0,2.37,1.63,2.32,6.7-.21,13.66,1.31,19.81-2.81C337.81,849.8,331.77,850,325.66,849.68Z"/><path class="cls-37" d="M694.65,849.77a0,0,0,0,1,0,0l0,0Z"/><path class="cls-37" d="M696.36,836.39c-1.36,0-2.51.09-2.46,1.91.05,1.65-.08,3.32,0,5s-.81,2.5-2.3,2.89c-2.32.6-4.64.23-7,0l0,0h0c2.17,1.21,4.51.56,6.74.46a2.75,2.75,0,0,0,2.78-3.36,41.36,41.36,0,0,1,0-5c0-1.47,1.19-1.19,2.08-1.37,1.12-.24,2,0,2,1.31a62.09,62.09,0,0,1-.08,8.3c-.22,1.88-2.52,2-3.56,3.25,4.16-1.47,4.17-1.47,4.2-5.34,0-2.08,0-4.15,0-6.22C698.89,836.38,697.68,836.4,696.36,836.39Z"/><path class="cls-37" d="M698.2,846.55a62.09,62.09,0,0,0,.08-8.3c0-1.32-.89-1.55-2-1.31-.89.18-2-.1-2.08,1.37a41.36,41.36,0,0,0,0,5,2.75,2.75,0,0,1-2.78,3.36c-2.23.1-4.57.75-6.74-.46h0c2.6,1.93,5.43,1,8.16.51a2.22,2.22,0,0,0,1.74-2.48c0-1.65.08-3.3,0-5-.07-1.3.59-1.57,1.69-1.74,1.43-.22,1.64.59,1.65,1.66,0,1.65,0,3.31,0,4.95s-.19,3.29-2,4.08a2.3,2.3,0,0,0-1.22,1.55h0l0,0C695.68,848.53,698,848.43,698.2,846.55Z"/><path class="cls-38" d="M662.68,826c0-3.45-1.22-4-4.86-2.16l.83,0a2.44,2.44,0,0,1,.1-.24c1.49,0,3.61-1.19,3.58,1.82a204.81,204.81,0,0,0-.11,22.3c.37,3.64-2,2.42-3.68,1.94-1.18-.34-1.56-1.87-2.72-2.4.54.8,1.06,1.61,1.61,2.39,1.08,1.52,2.73,1.36,4.16,1.05,1.72-.37,1.06-2,1.07-3.15Q662.75,836.76,662.68,826Z"/><path class="cls-38" d="M658.54,849.65c1.7.48,4.05,1.7,3.68-1.94a204.81,204.81,0,0,1,.11-22.3c0-3-2.09-1.79-3.58-1.82a2.44,2.44,0,0,0-.1.24h.06c1.29.16,3.12-.67,3.22,1.73q0,11.17,0,22.35h0c-.29,2.35-1.74,2-3.15,1.24-1-.53-1.64-1.77-3-1.91C657,847.78,657.36,849.31,658.54,849.65Z"/><path class="cls-37" d="M676.08,844.73c4,6.3,11.07,8.21,18.57,5C687.38,852.08,681.18,850.45,676.08,844.73Z"/><path class="cls-37" d="M694.65,849.77c-1.24,0-2.62-.37-3.72,0-4.73,1.7-8.25-.53-11.77-3.17-.95-.71-1.57-2.07-3.08-1.89,5.1,5.72,11.3,7.35,18.57,5Z"/><polygon class="cls-37" points="694.65 849.77 694.65 849.77 694.65 849.77 694.65 849.77"/><path class="cls-39" d="M871,825.21c-.24,2.18-2,1.38-3.19,1.49-3.47.31-7-.54-10.45.5,4,0,7.91,0,11.87.12,1.75,0,2.34-.56,2.34-2.33,0-2.88-1.85-2-3.38-1.91h0C869.18,823.68,871.2,823,871,825.21Z"/><path class="cls-39" d="M868.77,823.6c.8.39,2,.47,1.57,1.85-.32,1-1.29.84-2.09.85-3.26,0-6.53,0-9.79,0-.5,0-1.52-.4-1.14.87,3.44-1,7-.19,10.45-.5,1.21-.11,3,.69,3.19-1.49s-1.78-1.53-2.81-2.13h0A3.06,3.06,0,0,0,868.77,823.6Z"/><path class="cls-40" d="M852.25,850.38a93.66,93.66,0,0,0,19.16,0h0A120.16,120.16,0,0,0,852.25,850.38Z"/><path class="cls-40" d="M854.56,849.68a2.87,2.87,0,0,0-2.31.7,120.16,120.16,0,0,1,19.16,0,2.79,2.79,0,0,0-2.29-.72Z"/><path class="cls-41" d="M295.36,850.07c-1.74-.12-3.54.46-5.21-.42,0,.93.65,1.1,1.35,1.1,5.6-.06,11.21.31,16.8-.19h0C304,849.52,299.67,850.38,295.36,850.07Z"/><path class="cls-41" d="M304.49,849.7c-4.78-.06-9.56,0-14.34-.05,1.67.88,3.47.3,5.21.42,4.31.31,8.66-.55,12.94.49h0C307.27,849.24,305.8,849.71,304.49,849.7Z"/><path class="cls-41" d="M307.69,846.41c-4.22-.17-8.46.28-12.67-.28h0c3.66,1.45,7.48.48,11.21.57,3,.07,4.09.94,2.9,3.86,2.07-.58,1.22-2.19,1-3.34S308.57,846.44,307.69,846.41Z"/><path class="cls-41" d="M306.23,846.7c-3.73-.09-7.55.88-11.21-.57h0c.62,1.24,1.79,1,2.85,1,2.72,0,5.45,0,8.17,0s2.74.09,3.09,3.37C310.32,847.64,309.22,846.77,306.23,846.7Z"/><path class="cls-42" d="M658.3,828.79c.15-1.61-.36-3.29.3-4.86-.26.26-.53.24-.78-.12a135.41,135.41,0,0,0-.05,16.49C659,836.51,657.93,832.62,658.3,828.79Z"/><path class="cls-42" d="M658.63,841.09c.12-.05.06-.51.06-.79q0-8.24,0-16.46l-.11.09c-.66,1.57-.15,3.25-.3,4.86-.37,3.83.69,7.72-.53,11.51C658,840.7,657.8,841.48,658.63,841.09Z"/><path class="cls-42" d="M658.6,823.93l0-.1-.83,0C658.07,824.17,658.34,824.19,658.6,823.93Z"/><path class="cls-42" d="M658.71,823.84h-.06l0,.1Z"/><path class="cls-43" d="M404.18,850.17c-2.45.13-3.36-1.24-4.29-2.94.18,1.84.3,3.58,2.93,3.61,3.13,0,3.4,0,4.37-3,.49-1.57,1.29-3.08,1.27-4.78-.65,1.05-.81,2.32-1.37,3.38C406.35,847.78,407,850,404.18,850.17Z"/><path class="cls-43" d="M406.12,847.73c-.91,1.95-2.41,2.53-4.21,1.49-.84-.49-1-1.68-2-2,.93,1.7,1.84,3.07,4.29,2.94,2.77-.15,2.17-2.39,2.91-3.77.56-1.06.72-2.33,1.37-3.38h0C406.8,844.15,406.87,846.14,406.12,847.73Z"/><path class="cls-37" d="M680.47,842.91h0a11.94,11.94,0,0,1,.12-12.35h0C677.33,834.69,677.29,838.55,680.47,842.91Z"/><path class="cls-37" d="M677.88,834.64c0,1.37,0,2.75,0,4.12a3.89,3.89,0,0,0,2.61,4.18v0c-3.18-4.36-3.14-8.22.13-12.34h0A3.7,3.7,0,0,0,677.88,834.64Z"/><path class="cls-44" d="M521.52,826.71c-3.47.27-7-.55-10.41.5l12.08.07c1.21,0,2.31-.09,1.87-1.8h0C524.33,827.19,522.8,826.62,521.52,826.71Z"/><path class="cls-44" d="M520.76,826.32c-2.85,0-5.69,0-8.54,0-.51,0-1.52-.36-1.11.89,3.43-1.05,6.94-.23,10.41-.5,1.28-.09,2.81.48,3.54-1.23C523.76,826.44,522.25,826.33,520.76,826.32Z"/><path class="cls-45" d="M298.77,826.75c-1.23.12-2.7-.78-3.68.71,4.11-.06,8.22-.08,12.33-.19.82,0,2,.51,2.24-1h0C306.06,827.24,302.39,826.41,298.77,826.75Z"/><path class="cls-45" d="M295.09,827.46c1-1.49,2.45-.59,3.68-.71,3.62-.34,7.29.49,10.89-.48-3.81,0-7.61,0-11.41.06C297.1,826.35,295.72,825.92,295.09,827.46Z"/><path class="cls-46" d="M746.23,850.38a4.58,4.58,0,0,0,4.27-.12h0a4.66,4.66,0,0,1-.48-2C749.71,849.57,748.75,850.49,746.23,850.38Z"/><path class="cls-46" d="M750,844.76h0c0,.22,0,.45.07.67A5.08,5.08,0,0,0,750,844.76Z"/><path class="cls-46" d="M750,848.22c0-.92.07-1.85,0-2.79,0-.22,0-.45-.07-.67-.54,1.21-.27,2.45-.4,3.66-.25,2.26-3.11-.17-3.35,2C748.75,850.49,749.71,849.57,750,848.22Z"/><path class="cls-46" d="M750,848.22a9.24,9.24,0,0,0,0-2.79C750.09,846.37,750,847.3,750,848.22Z"/><path class="cls-46" d="M750,844.76a5.08,5.08,0,0,1,.07.67,9.24,9.24,0,0,1,0,2.79,4.66,4.66,0,0,0,.48,2v-6.35A3.36,3.36,0,0,0,750,844.76Z"/><path class="cls-47" d="M380.8,846.36c1,4.84,3,5.83,6.78,3.31h0C384.14,851,381.87,849.91,380.8,846.36Z"/><path class="cls-47" d="M380.8,846.36c1.07,3.55,3.34,4.62,6.78,3.31A5.84,5.84,0,0,1,380.8,846.36Z"/><path class="cls-37" d="M680.48,842.94a5.12,5.12,0,0,0,4.18,3.24l0,0h0l-4.18-3.24v0Z"/><path class="cls-37" d="M680.48,842.94h0c.83,2.89,1.16,3.14,4.18,3.25h0A5.12,5.12,0,0,1,680.48,842.94Z"/><polygon class="cls-37" points="684.63 846.16 684.63 846.16 684.63 846.16 684.63 846.16"/><path class="cls-37" d="M684.63,846.16h0l0,0h0Z"/><polygon class="cls-37" points="684.68 846.19 684.69 846.19 684.68 846.19 684.68 846.19"/><path class="cls-37" d="M684.69,846.19l0,0h0Z"/><path class="cls-37" d="M684.63,846.16l0,0h0l-.06,0Z"/><path class="cls-37" d="M684.66,846.18h0Z"/><polygon class="cls-37" points="680.47 842.91 680.47 842.91 680.47 842.91 680.47 842.92 680.47 842.91"/><path class="cls-37" d="M680.49,842.94v0h0Z"/><path class="cls-37" d="M680.48,842.94h0l0,0Z"/><path class="cls-37" d="M680.47,842.92h0v0h0Z"/><path class="cls-37" d="M680.49,842.94l0,0h0Z"/><polygon class="cls-48" points="823.11 827.29 823.12 827.29 823.12 827.29 823.11 827.29"/><path class="cls-48" d="M830.48,827.23a6.53,6.53,0,0,0-7.37.06A11.55,11.55,0,0,1,830.48,827.23Z"/><path class="cls-48" d="M823.11,827.29h0l7.37-.06A11.55,11.55,0,0,0,823.11,827.29Z"/><path class="cls-49" d="M758.73,827.29c-2.42-1.72-5-1.18-7.54-.46l.18.37A11.8,11.8,0,0,1,758.73,827.29Z"/><path class="cls-49" d="M758.73,827.29a11.8,11.8,0,0,0-7.36-.09h0Z"/><path class="cls-50" d="M661.2,827.83v17.83a2.56,2.56,0,0,0,.73,2.26h0a165,165,0,0,1,0-22.35A2.56,2.56,0,0,0,661.2,827.83Z"/><path class="cls-50" d="M661.93,847.92h0q0-11.17,0-22.35A165,165,0,0,0,661.93,847.92Z"/><polygon class="cls-51" points="326.78 827.43 326.78 827.43 326.78 827.43 326.78 827.43"/><path class="cls-52" d="M335,827.21c-3.15-1.32-5.75-1.25-8.21.22C329.48,826.15,332.23,826.61,335,827.21Z"/><polygon class="cls-52" points="326.78 827.43 326.78 827.43 326.78 827.43 326.78 827.43"/><path class="cls-52" d="M326.78,827.43h0l8.21-.22C332.23,826.61,329.48,826.15,326.78,827.43Z"/><path class="cls-37" d="M687.36,848.46c-.09-.08-.18-.22-.28-.23s-.22.11-.33.17l.28.24Z"/></svg>